<mxfile host="65bd71144e">
    <diagram id="OOjXpGnuQBnd_RvHZjDw" name="Page-1">
        <mxGraphModel dx="440" dy="347" grid="1" gridSize="10" guides="1" tooltips="1" connect="1" arrows="1" fold="1" page="1" pageScale="1.25" pageWidth="850" pageHeight="1100" math="0" shadow="0">
            <root>
                <mxCell id="0"/>
                <mxCell id="1" parent="0"/>
                <mxCell id="6" value="Video Frames" style="curved=1;startArrow=none;endArrow=block;exitX=0.5;exitY=1;entryX=0.5;entryY=0.07;exitDx=0;exitDy=0;exitPerimeter=0;entryDx=0;entryDy=0;entryPerimeter=0;" parent="1" source="45" target="47" edge="1">
                    <mxGeometry x="0.2461" relative="1" as="geometry">
                        <Array as="points"/>
                        <mxPoint x="369.5000000000001" y="62.00000000000006" as="sourcePoint"/>
                        <mxPoint x="373.9999999999999" y="150" as="targetPoint"/>
                        <mxPoint as="offset"/>
                    </mxGeometry>
                </mxCell>
                <mxCell id="7" value="Face Images / &#xa;Detection Request" style="curved=1;startArrow=none;endArrow=block;exitX=0;exitY=0.5;exitDx=0;exitDy=0;exitPerimeter=0;" parent="1" source="47" target="41" edge="1">
                    <mxGeometry x="-0.2392" y="17" relative="1" as="geometry">
                        <Array as="points">
                            <mxPoint x="220" y="140"/>
                        </Array>
                        <mxPoint x="312.5" y="191.85000000000002" as="sourcePoint"/>
                        <mxPoint x="150.47058823529414" y="280" as="targetPoint"/>
                        <mxPoint as="offset"/>
                    </mxGeometry>
                </mxCell>
                <mxCell id="8" value="Recognition" style="curved=1;startArrow=none;endArrow=block;entryX=0;entryY=0.85;entryDx=0;entryDy=0;entryPerimeter=0;" parent="1" source="41" target="47" edge="1">
                    <mxGeometry x="-0.3697" y="19" relative="1" as="geometry">
                        <Array as="points">
                            <mxPoint x="300" y="260"/>
                        </Array>
                        <mxPoint x="209.91176470588232" y="280" as="sourcePoint"/>
                        <mxPoint x="349.4" y="195" as="targetPoint"/>
                        <mxPoint as="offset"/>
                    </mxGeometry>
                </mxCell>
                <mxCell id="9" value="Store &amp; Query &#xa;Embeddings" style="curved=1;startArrow=none;endArrow=block;exitX=0.95;exitY=1;entryX=-0.048;entryY=0.603;entryDx=0;entryDy=0;entryPerimeter=0;exitDx=0;exitDy=0;exitPerimeter=0;" parent="1" source="47" target="42" edge="1">
                    <mxGeometry x="-0.2361" y="9" relative="1" as="geometry">
                        <Array as="points">
                            <mxPoint x="420" y="260"/>
                        </Array>
                        <mxPoint x="398.5999999999999" y="195" as="sourcePoint"/>
                        <mxPoint x="530" y="280" as="targetPoint"/>
                        <mxPoint as="offset"/>
                    </mxGeometry>
                </mxCell>
                <mxCell id="10" value="Embeddings&#xa;Logs" style="curved=1;startArrow=none;endArrow=block;exitX=0.484;exitY=-0.058;exitDx=0;exitDy=0;exitPerimeter=0;entryX=1;entryY=0.5;entryDx=0;entryDy=0;entryPerimeter=0;" parent="1" source="42" target="47" edge="1">
                    <mxGeometry x="0.2019" y="22" relative="1" as="geometry">
                        <Array as="points">
                            <mxPoint x="500" y="140"/>
                        </Array>
                        <mxPoint x="595.2156862745098" y="280.0000000000001" as="sourcePoint"/>
                        <mxPoint x="435.5" y="191.85000000000002" as="targetPoint"/>
                        <mxPoint as="offset"/>
                    </mxGeometry>
                </mxCell>
                <mxCell id="41" value="Model" style="sketch=0;outlineConnect=0;fontColor=#232F3E;gradientColor=none;fillColor=#01A88D;strokeColor=none;dashed=0;verticalLabelPosition=bottom;verticalAlign=top;align=center;html=1;fontSize=12;fontStyle=0;aspect=fixed;pointerEvents=1;shape=mxgraph.aws4.sagemaker_model;" parent="1" vertex="1">
                    <mxGeometry x="200" y="220" width="40" height="40" as="geometry"/>
                </mxCell>
                <mxCell id="42" value="Database" style="html=1;verticalLabelPosition=bottom;align=center;labelBackgroundColor=#ffffff;verticalAlign=top;strokeWidth=2;strokeColor=#0080F0;shadow=0;dashed=0;shape=mxgraph.ios7.icons.data;" parent="1" vertex="1">
                    <mxGeometry x="480" y="220" width="40" height="40" as="geometry"/>
                </mxCell>
                <mxCell id="45" value="&lt;span style=&quot;color: rgb(0, 0, 0); background-color: light-dark(#ffffff, var(--ge-dark-color, #121212));&quot;&gt;Camera&lt;/span&gt;" style="points=[[0.015,0.015,0],[0.5,0,0],[0.985,0.015,0],[1,0.22,0],[0.985,0.43,0],[0.73,0.85,0],[0.5,1,0],[0.285,0.85,0],[0.015,0.43,0],[0,0.22,0]];verticalLabelPosition=bottom;sketch=0;html=1;verticalAlign=top;aspect=fixed;align=center;pointerEvents=1;shape=mxgraph.cisco19.surveillance_camera;fillColor=#005073;strokeColor=none;" parent="1" vertex="1">
                    <mxGeometry x="334.40000000000003" y="20" width="51.2" height="40" as="geometry"/>
                </mxCell>
                <mxCell id="47" value="&lt;font&gt;Application&lt;/font&gt;" style="fontColor=#0066CC;verticalAlign=top;verticalLabelPosition=bottom;labelPosition=center;align=center;html=1;outlineConnect=0;fillColor=#CCCCCC;strokeColor=#6881B3;gradientColor=none;gradientDirection=north;strokeWidth=2;shape=mxgraph.networks.pc;" parent="1" vertex="1">
                    <mxGeometry x="320" y="120" width="80" height="60" as="geometry"/>
                </mxCell>
            </root>
        </mxGraphModel>
    </diagram>
</mxfile>